# xmcd
# 
# Track frame offsets:
#     150
#     22137
#     42660
#     64132
#     89100
#     108012
#     132250
#     152562
#     173587
#     197512
# 
# Disc length: 2902
# 
# Revision: 2
# Processed by: cddbd v1.5.2PL0 Copyright (c) Steve Scherf et al.
# Submitted via: fre:ac v1.0.17
# 
DISCID=840b540a
DTITLE=松田聖子 - Vanity Fair
DYEAR=1996
DGENRE=Pop
TTITLE0=明日へと駆け出してゆこう
TTITLE1=Crazy Shopper
TTITLE2=Darling You’re The Best
TTITLE3=あなたに逢いたくて～Missing You～
TTITLE4=白いバラをあなたに…
TTITLE5=未来への扉
TTITLE6=ロマンティックにKissしましょう!!
TTITLE7=あふれる想い
TTITLE8=もし、もう一度戻れるなら
TTITLE9=Dear My Children
EXTD=
EXTT0=
EXTT1=
EXTT2=
EXTT3=
EXTT4=
EXTT5=
EXTT6=
EXTT7=
EXTT8=
EXTT9=
PLAYORDER=
